<mxfile host="app.diagrams.net" modified="2023-04-15T13:55:02.725Z" agent="Mozilla/5.0 (Windows NT 10.0; Win64; x64) AppleWebKit/537.36 (KHTML, like Gecko) Chrome/111.0.0.0 Safari/537.36" etag="eMmCZaF7A57ALpqXUo4W" version="21.1.8" type="device">
  <diagram name="Page-1" id="aCqhE8DqOP3LtTDR6fxL">
    <mxGraphModel dx="882" dy="487" grid="1" gridSize="10" guides="1" tooltips="1" connect="1" arrows="1" fold="1" page="1" pageScale="1" pageWidth="850" pageHeight="1100" math="0" shadow="0">
      <root>
        <mxCell id="0" />
        <mxCell id="1" parent="0" />
        <mxCell id="yIAuAzQA4wbyVpmxaV24-2" value="" style="shape=image;verticalLabelPosition=bottom;labelBackgroundColor=default;verticalAlign=top;aspect=fixed;imageAspect=0;image=data:image/png,iVBORw0KGgoAAAANSUhEUgAAAtoAAAGUCAYAAAALVIWyAAABfGlDQ1BJQ0MgUHJvZmlsZQAAKJFjYGAqSSwoyGFhYGDIzSspCnJ3UoiIjFJgv8PAzcDDIMRgxSCemFxc4BgQ4MOAE3y7xsAIoi/rgsxK8/x506a1fP4WNq+ZclYlOrj1gQF3SmpxMgMDIweQnZxSnJwLZOcA2TrJBUUlQPYMIFu3vKQAxD4BZIsUAR0IZN8BsdMh7A8gdhKYzcQCVhMS5AxkSwDZAkkQtgaInQ5hW4DYyRmJKUC2B8guiBvAgNPDRcHcwFLXkYC7SQa5OaUwO0ChxZOaFxoMcgcQyzB4MLgwKDCYMxgwWDLoMjiWpFaUgBQ65xdUFmWmZ5QoOAJDNlXBOT+3oLQktUhHwTMvWU9HwcjA0ACkDhRnEKM/B4FNZxQ7jxDLX8jAYKnMwMDcgxBLmsbAsH0PA4PEKYSYyjwGBn5rBoZt5woSixLhDmf8xkKIX5xmbARh8zgxMLDe+///sxoDA/skBoa/E////73o//+/i4H2A+PsQA4AJHdp4IxrEg8AAAGdaVRYdFhNTDpjb20uYWRvYmUueG1wAAAAAAA8eDp4bXBtZXRhIHhtbG5zOng9ImFkb2JlOm5zOm1ldGEvIiB4OnhtcHRrPSJYTVAgQ29yZSA1LjQuMCI+CiAgIDxyZGY6UkRGIHhtbG5zOnJkZj0iaHR0cDovL3d3dy53My5vcmcvMTk5OS8wMi8yMi1yZGYtc3ludGF4LW5zIyI+CiAgICAgIDxyZGY6RGVzY3JpcHRpb24gcmRmOmFib3V0PSIiCiAgICAgICAgICAgIHhtbG5zOmV4aWY9Imh0dHA6Ly9ucy5hZG9iZS5jb20vZXhpZi8xLjAvIj4KICAgICAgICAgPGV4aWY6UGl4ZWxYRGltZW5zaW9uPjczMDwvZXhpZjpQaXhlbFhEaW1lbnNpb24+CiAgICAgICAgIDxleGlmOlBpeGVsWURpbWVuc2lvbj40MDQ8L2V4aWY6UGl4ZWxZRGltZW5zaW9uPgogICAgICA8L3JkZjpEZXNjcmlwdGlvbj4KICAgPC9yZGY6UkRGPgo8L3g6eG1wbWV0YT4KFua9EAAAQABJREFUeAHt3Qd4VFXawPE3EHoJnQihSgdBQFGQJl062EBFwRUVRQF1d0WBte+qu4Lrqh/qriAWEBABARWQJkURBKlSpZfQO6Hku+/BO06SmUmZmcydmf95npA7t5x7zu+Em3dO3nsnJtkqQkEAAQQQQAABBBBAAIGACuQIaG1UhgACCCCAAAIIIIAAAkaAQJsfBAQQQAABBBBAAAEEgiBAoB0EVKpEAAEEEEAAAQQQQIBAm58BBBBAAAEEEEAAAQSCIECgHQRUqkQAAQQQQAABBBBAgECbnwEEEEAAAQQQQAABBIIgQKAdBFSqRAABBBBAAAEEEECAQJufAQQQQAABBBBAAAEEgiBAoB0EVKpEAAEEEEAAAQQQQIBAm58BBBBAAAEEEEAAAQSCIECgHQRUqkQAAQQQQAABBBBAgECbnwEEEEAAAQQQQAABBIIgQKAdBFSqRAABBBBAAAEEEECAQJufAQQQQAABBBBAAAEEgiBAoB0EVKpEAAEEEEAAAQQQQIBAm58BBBBAAAEEEEAAAQSCIECgHQRUqkQAAQQQQAABBBBAgECbnwEEEEAAgYgQ2Lx5s0yaNMn0xX05mJ3buXNnMKuXgwcPyrlz5wJ6jmDUGdAGUhkCESRAoB1Bg0lXEEAAgWgW2Lhxo0yYMMEQuC97M6latars3r3b2+Z01ycnJ8v1118v58+fT3ffrO4wdOhQmTFjRlYP93ice51HjhyRrVu3etyPlQgg4L9ArP9VUAMCCCCAAALhJbBs2TIpW7asJCQkZLnhMTExsn//ftHvwSoffPBBwOt3r1PfmGj7r7766mB1gXoRiGoBZrSjevjpPAIIIOBcAZ0pHjRokJQpU0aKFy8ub7/9tmnsRx99JDVr1pQKFSrI3XffbYLdzPbik08+McemPu6JJ56QBQsWSIcOHaRo0aJy6dIl0dnxli1bmsBcv3/77beuw7Qddhk+fLjUq1dPKleuLP369bNXm1l2nT3XfgwePNjU6drotvD5559LjRo1JC4uzpxfNz355JOuGW1PbfNkpKkm11xzjVvNInrszJkzzTq7zunTp8uzzz4rL730kmm3vvlIXSZOnGjaVLJkSenWrZscOHDAtUurVq3kv//9r1SpUsXYvPbaa65tSUlJMnDgQPNGRrdPmTLFtU0NdQy1r7Vq1ZLXX3/dtY0FBCJOwPrTFwUBBBBAAAHHCYwZMya5TZs2yRs2bEg+e/ZscmJiomnj6tWrk60c7OQLFy4kP/LII8kjR44066dNm5Z82223pVlO3TE9zprJTrbSJlJvSu7Tp0+yFTwnWwGmqV93OHz4cPLChQuTL168mDx79uzkJk2auI7LlSuXWf7xxx+T27dvn2wFmMmnT59O/uWXX8z6Y8eOJVesWDF5zZo1pv0333yzqcNVwe8Lup81w56sfbCC++Rdu3aZLdoea9bZtZy6bZ6Mzpw5k1y4cOEUp7jnnnuSrUDeVY9dp/VGJvndd99Nsa/94vjx48nly5dPnjt3brK276mnnkp+4IEH7M3JuXPnTu7bt6/p19KlS5PLlSuXbKWhmO3arjvuuMMYr1y50mxTPy1qpv3at2+f6af1hinZ+suA2cY/CESaADPaEffWiQ4hgAACkSGgM7BDhgwxM5958+aVEiVKmI7VrVvXzKJav5DNTLMVBGeqw1awLNddd52ZsfZ0oBVIixWwS2zslezKYsWKSbNmzSRHjhzSsGFDWbduneiMrXvJmTOnbNmyRaw3AZI/f37XjPKcOXOka9euYgWhYgWYZlZ46tSp7oeaZW1T27ZtpUuXLuY83lJaUrfNm1GaE2RhxTfffGPapDPXOss+YsQI+frrr0Xdtej3AQMGmHG58cYbTT+toNxs03Y9/PDDpi86w6+pKYsXLzbb9B/dFh8fb2a8rTcfYh/n2oEFBCJEgBztCBlIuoEAAghEmsD8+fNd6SLufRs9erR8+eWX5iZEDXg1xSMzxVvaiF2HBn7uxZqtljfeeEP27t0rGnSfPHlSLl++7L6LNGjQQEaNGiX333+/Cap1WdNFNICcNWuWLFmyxLW/ppekLtrXRo0apV6d5nXqtnkzSn2gHRynXu/r9XfffWfeWNj7FCpUyATcmkpjp8xce+219maz7/fffy/9+/cXPVaf/KJvQOyifnbRNzp20XqtvwLYL/mOQEQJEGhH1HDSGQQQQCByBGrXrm2CNXsmW3ums8aa02ulYki+fPlEg+bx48dnuNNWWoXMmzdP9IZAb0Vnnt3Lo48+Kv/617+kefPmcurUKSlSpIj7Ztdy586dpVOnTvLxxx+bfa30DylQoICZxdbA21ex++prH92Wum32ce5GOvNupceYGWf7Rk2dhdcc68wUzSnXoNou+qbm0KFDKW6ctFJKpFSpUmYX3bdOnTpmWfv91ltvyU033WQfnuK7lXaS4jUvEIhUAVJHInVk6RcCCCAQ5gIatI4bN86VpmHl+Jq0Db2JToNsDSY10M5M0bSNdu3aiaaiZKTozYbbtm0zNwvq/p9++qnHmxk1ANdZYw1se/fuLfYsrfZBbwTcsWOHOZ3OhFu5z2lOrfvpzLc966t9zUjxZJQnTx7R9Jqff/7ZVKFvTlatWuWxukqVKsn27ds9bmvdurVoSos+WUWL3hipKTTuQfLYsWNNv608dtN+K6fe7Kvtev/990Xf2GhRn9TpNmYD/yAQ4QIE2hE+wHQPAQQQCFcB64Y5M6OqOb46c6vpG7fccotYN0ZK48aNzTp9nZmSXtpI6ro0aNU8cQ0w69evL2vXrjVpIqn3s24GlKZNm4p1Q6RoTrPmLmtec8uWLc3TNzRdRNNLdPbX/lAd9zqsmw6lZ8+eJiVD88DtgNV9H0/Lnox0P33KyL333mvSUXSfXr16eTpcevToYYJpPZ+mfbgXzQfXJ4fccMMNxvqVV16RYcOGuXbRWWv9wB59cki1atXMfvbTTvRJJjrbrf3SoL969equgN1VAQsIRIFAjPUO/MpdDVHQWbqIAAIIIBB+Apq/qykT7jOpmiddsGDBgD9j2puO/aE0Gnj7KjpbrQF26qK/aq2npph88tTpH+776uMEtb/WU0PcV6e77MlID1InnV1Pr+iMtD5C0VPRtp84cSJNv3Q8dJZaHyeo++hfGVIX3aaz2Vq3ncaSeh9eIxDJAgTakTy69A0BBBBAAIEgCdiBdpCqp1oEIkKA1JGIGEY6gQACCCCAQPYKWM8Hz94TcjYEwlCAGe0wHDSajAACCCCAAAIIIOB8AWa0nT9GtBABBBBAAAEEEEAgDAUItMNw0GgyAggggAACCCCAgPMFCLSdP0a0EAEEEEAAAQQQQCAMBQi0w3DQaDICCCCAAAIIIICA8wUItJ0/RrQQAQQQQAABBBBAIAwFCLTDcNBoMgIIIIAAAggggIDzBQi0nT9GtBABBBBAAAEEEEAgDAUItMNw0GgyAggggED6Ap06dTIf+60f/e2UL20TBQEEokeAD6yJnrGmpwgggEBUCWhw7cSSnJzsxGbRJgQQCIJAbBDqpEoEEEAAAQQcI+CUwNapgb9jBoqGIBCBAqSOROCg0iUEEEAAAQQQQACB0AsQaId+DGgBAggggAACCCCAQAQKEGhH4KDSJQQQQAABBBBAAIHQCxBoh34MaAECCCCAAAIIIIBABAoQaEfgoNIlBBBAAAEEEEAAgdALEGiHfgxoAQIIIIAAAggggEAEChBoR+Cg0iUEEEAAAQQQQACB0AsQaId+DGgBAggggAACCCCAQAQKEGhH4KDSJQQQQAABBBBAAIHQCxBoh34MaAECCCCAAAIIIIBABAoQaEfgoNIlBBBAAAEEEEAAgdALEGiHfgxoAQIIIIAAAggggEAEChBoR+Cg0iUEEEAAAQQQQACB0AsQaId+DKK2BcOHD5d69epJ5cqVpV+/fsZh8uTJ8vTTT6cwqV69uuv1li1bpHXr1lKsWDGpUKGCbNq0yWz7/PPPpUaNGhIXFycdOnRw7T9hwgSpWrWqlClTRgYPHiyXLl0y22bOnCktWrSQ8uXLm/o2btxo1ntqk6syFhBAAAEEEEAAgUwIxGZiX3ZFIGACy5cvF/366aef5MKFC7J161ZT96lTp+TQoUMpzrNt2zbX60GDBknz5s1lypQpcubMGSlZsqQcP35cnnjiCXn33XelU6dOsnfvXrO/rtegffr06RIfHy933HGHzJs3zwTWTz31lMyePdsE4L/88otUqlTJtMdTm1wnZwEBBBBAAAEEEMiEADPamcBi18AJ5MyZU3R2evXq1ZI/f3655ppr0q383LlzsnLlShk2bJgULlzYBM9ajwbMbdu2lS5dukiOHDkkISHB1DVnzhzp2rWrlCtXTnLlyiXdunWTqVOnSkxMjJnZ1lltneHWWfU8efJIVtqUbqPZAQEEEEAAAQSiVoBAO2qHPrQdb9CggYwaNUruv/9+Mwu9efNmrw1KTk4223744QeTHqIBsXuZP3++NGrUyH2VWZ47d65MmzZN2rRpY74+/vhjOXv2rNk2a9Ys0UBc0010dlxLZtpkDuAfBBBAAAEEEEDAhwCpIz5w2BRcgc6dO5sgWwNgTQfZtWuXxMbGmlQS+8w6623nVdeqVUvc00jsfWrXri2eAvUCBQqYWWwN6FMXzQvX/G2dUe/Vq5cUKlTIBOPe2pT6eF4jgAACCCCAAALpCTCjnZ4Q24MioLnYOlOtaRy9e/c2ge7p06elWbNmsnTpUrl8+bI57xdffOE6v+ZjX3XVVfLNN9+41mkQrnnZOkNt52ZfvHjRbNf1Olu9Y8cO81rr1LxtPa+eX4umjbRq1UoSExPNOk9tMjvyDwIIIIAAAgggkEkBZrQzCcbugRHQYPq5556TggULmnSOAQMGmCeG6FND9KkiderUMUG4Lts513rml19+We677z4pUqSIJCUliT6lRPO7e/bsKTVr1pQqVaqYoF3TSVq2bCkDBw50Pdlk586d8uqrr8q9994r7du3l3z58pnZcn2Cye23325ulPTUpsD0mFoQQAABBBBAINoEYqwZvCsJsNHWc/rrCAGdYdbgOnXRIFp/NPUmRU/l6NGjUrRo0RSbdHZbZ8X1Rkn3ovXojLXurzdF2kXztTVVxX2dbvPWJvs4viOAQHgI6F/MtDjl15zT2hMeo0grEQhvAQLt8B4/Wo8AAggg4EXAaYGt09rjhY3VCCAQQAFytAOISVUIIIAAAggggAACCNgCBNq2BN8RQAABBBBAAAEEEAigAIF2ADGpCgEEEEAAAQQQQAABW4BA25bgOwIIIIAAAggggAACARQg0A4gJlUhgAACCCCAAAIIIGALEGjbEnwPuYB+wIzele+0L20XBQEEEEAAAQQQyKwAj/fLrBj7B03AfvRV0E7gR8VOeQ6vH13gUASiTsC+pjjl/6/T2hN1PxB0GIEQCPDJkCFA55S+BZzyS1Fbaf9i9N1itiKAAAIIIIAAAmkFSB1Ja8IaBBBAAAEEEEAAAQT8FiDQ9puQChBAAAEEEEAAAQQQSCtAoJ3WhDUIIIAAAggggAACCPgtQKDtNyEVIIAAAggggAACCCCQVoBAO60JaxBAAAEEEEAAAQQQ8FuAQNtvQipAAAEEEEAAAQQQQCCtAIF2WhPWIIAAAggggAACCCDgtwCBtt+EVIAAAggggAACCCCAQFoBAu20JqxBAAEEEEAAAQQQQMBvAQJtvwmpAAEEEEAAAQQQQACBtAIE2mlNWIMAAggggAACCCCAgN8CBNp+E1IBAggggAACCCCAAAJpBQi005qwBgEEEEAAAQQQQAABvwUItP0mpAIEEEAAAQQQQAABBNIKEGinNWENAggggAACCCCAAAJ+CxBo+01IBQgggAACCCCAAAIIpBUg0E5rwhoEEEAAAQQQQAABBPwWIND2m5AKEEAAAQQQQAABBBBIK0CgndaENQgggAACCCCAAAII+C1AoO03IRUggAACCCCAAAIIIJBWgEA7rQlrEEAAAQQQQAABBBDwW4BA229CKkAAAQQQQAABBBBAIK0AgXZaE9YggAACCCCAAAIIIOC3AIG234RUgAACCCCAAAIIIIBAWgEC7bQmrMlmgf3796c546VLlyQxMTHNelYggAACvgT0uqHXj9TF03Um9T68RgABBAItQKAdaFHqy7DA8ePH5dprr5U6depIUlKSlCxZUnLmzClfffWVzJ49W+Lj42XIkCEZro8dEUAgugUGDx5srht6/dDriF5P9Lqi15fatWtL/fr15dixY9GNRO8RQCBbBQi0s5Wbk7kLxMXFSY4cOeTw4cMyffp0adGihZmJOnv2rIwZM0YuX74spUqVcj+EZQQQQMCrQOnSpc11Q68feh3RmW29rkybNk2OHDlijitSpIjX49mAAAIIBFqAQDvQotSXKYG+ffua/fUXY0xMjFk+evSoTJ482Sz36dPHfOcfBBBAID0B+3qh1w+9jmjR68rYsWPNsn29MS/4BwEEEMgGAQLtbEDmFN4F7rrrLjOrPWPGDLFzKMePHy8XL16Udu3aSUJCgveD2YIAAgi4Cej1Qq8bev3Q64gWva7o9UX/enb33Xe77c0iAgggEHwBAu3gG3MGHwIlSpSQrl27SnJysixatMjsOW/ePPOd2ScfcGxCAAGPAvZ1w76O6HVFry96ndHrDQUBBBDITgEC7ezU5lweBexfjO4bNX+7e/fu7qtYRgABBNIV0OuGXj9SF0/XmdT78BoBBBAItACBdqBFqS/TAh07djRPBnA/8M4775R8+fK5r2IZAQQQSFdArxt6/XAv+uQRvc5QEEAAgewWINDObnHOl0YgV65caXInmX1Kw8QKBBDIoEDq64fmZut1hoIAAghkt0CMlbuWnN0n5XwIpBZYvXq1eaa2rq9WrZr8+uuvqXcJyWv7SSj8NwkJPydFIMsC1atXl02bNpnjV61aJfXq1ctyXYE6kOtJoCSpB4HwEWBGO3zGKqJbqr8E9cNrtKSejYrojtM5BBAIisB9991n6tXrihOC7KB0kkoRQMDxAgTajh+i6GmgHWDbz8KNnp7TUwQQCLTAvffea6q0ryuBrp/6EEAAgYwIEGhnRIl9skVA8yg7derEs7OzRdv7SZYtWyYvvPCC/PDDD1530o+0PnDggNm+efNmmTRpktd9fW34+9//7muz39umTp0q69evz1I9vto2ZcoU2bhxY5bq9ecgf/rjfl5Nzfriiy/cV0Xcsj5TW68nPDs74oaWDiEQVgIE2mE1XM5urOYx/9///Z/ccMMNUqBAAfOJbJqTmNEvfTKAfrBERvfPjv1s8ew4V7DPoWOiY6Nj5C3nXD+qevjw4dKsWbM0T4KxLfT7d999J48//rhZpQHnhAkT3Deb5Y8//liKFi0q11xzjcydO9es+/HHH1Ps97e//S3F60C/0E8IXLt2bZaq9dW2iRMnZjmAz1Jjfj/In/64n1fffGgfzp8/b8anfPnycs8997jvkuVlf68Dgfx/oNcTva4Esk5/6rJR/anD32Mzch2w28l3BBDwX4BA239DarAEdu3aJTfffLMMGDBANJg6c+YMLg4T0DHRsdEx0rHSMUtdNDC5//77zfbKlSun3ux63aFDB9cn77lWeljQZxqvWbNGWrduLQcPHpRnn33Ww16sCpVAnjx5zPi8/vrrAWkC14GAMAa1koxcB4LaACpHIMoEYqOsv3Q3CAKaRqCzYQsXLpSy8aVk+MA+0rZJQ0m4qmQQzkaVWRXYvS9RZi9ZIS/+Z5wsWLDAjNns2bMld+7cpsoRI0aYmelvv/1W3n33XTOeH330kWgKhf5ybtq0qfzrX/+S+Ph4M0OtqQdvv/12hpqTmJgobdu2lS1btpgb02699VbR88XGxsrYsWPl1VdfNY9f03zaIUOGmDqfeOIJ6datmzm/prEcOnRIduzYYd4I6Ixs7dq1ZcyYMVKhQgXZt2+fmWFfuXKlFCpUSAYNGiT9+vUz9Wzbts20fffu3ebjuV955RXXJwRu3bpVHnroIdGnUpQtW1ZGjhwprVq1StOnn3/+Wf70pz/Jnj17zJsG/YhvT0Vn7pcvXy5nz56Vd955R95//33z/Gbty5dffil58+YVDWp79OhhDvfmqxs///xzY6R9a9y4sXz99dfmGF/90b8sDBs2TE6fPi133HGHGa+cOXPKqVOnpH///uYvEZpSof6BLlwHAi0anPrSuw4E56zUikD0CjCjHb1jH5Cea8BhB2UaZP84+R3pd2sHguyA6Aa2En3jo2OjY6RjpW+MdOzsoFHzsjXI1OBZt2nRJzZMnz5dNCAtUqSIaxZbA2+doc5o0T/fa+B54403ij7KUYNsLZcuXTJBu6ai6Gz6m2++6apXA2udfX/ggQdEA3UNGB977DHRm9zcg2at54033pA2bdqYds6cOdMs63otH374oQmgN2zYIBoMasqEXTQgb9++vezcuVOef/55E0xrm1IXPa++CdBAv3Pnzl5z0tXl3//+twl09U2Ffuz3Z599ZtqvM/t6bj2nfQ5vvsePHxcNzjUoP3r0qHzwwQeuJnnrjx7z9NNPi+aP//LLL+bL/hjy//73v+bNkrZBg39tUyAL14FAaga3rvSuA8E9O7UjEH0CBNrRN+YB67HmYp47d87MKmqlOpNdoljajz4O2AmpKCACOkY6Vlp0RljH0FvOdt26daVKlSpme8uWLV0BeEAaYlWi53344YfNLLnOtGpKy5w5c1zVN2nSRG677TYz863t3L59u/Ts2dPMGPfu3Vu++uorU4fOys+fP98EtGXKlJFy5cq56tBPBLz++uvNJ43qJwbqjL0WnXXWGfAnn3xS8ufPL5rmorPkS5YscR2rCzobrDd8arCtM9J33XWXmWFOsZPbC817/sc//mE+BjxHjhyigb/2UZc1Hefqq6+WxYsXmyO8+epfGvQvAF26dDHHqY1dvPVH3TSw177rh7PoXwP05kktOtOu7S9VqpQ0aNDAvKGw6/P3O9cBfwVDc3xmrgOhaSFnRSAyBEgdiYxxDEkvdBZLZ/B0plCLpotQwkPAHisdOx1DzdX19Ml5o0ePNikPGjzqbLDe3Bjoct1117mq1LQPTXuwiwbedlm6dKlJ3dAA1C4aVB8+fFj0xkVNcdHnJWuKx9ChQ03wrPs1bPjHz2XBggVN4Kzr9ekqNWrUMIGsvtaiAbnOAuvNoHbR/erUqWNuqLPX6Xm9FT1WU2LsorP1GqjrjLxd9u7daxa9+eqbhkaNGtm7p/jurT8aTM+aNSvFGwX7+dHff/+9mdm3K/LVfnufjH7nOpBRKeftl9HrgPNaTosQCB+BP34bhE+baalDBPTP3xqkaRCmhZxshwxMBpphj5WOnY5h4cKF0wTamvqgqQuabpAvXz755JNPXKkjGThFhnexc8Q9HeAe/GuQrIG43tCpT15IXTTY1iehaI63fmkQq8Vb/Rpspn5En77WGWv3ok9p0Lxo96KpNN6Ke5t1Hz3+rbfekptuuinFIb58dWZdg3NPxVt/9Dw6iz1q1Kg0h+mMvfahePHiZlvq/qQ5IBMruA5kAsthu2bkOuCwJtMcBMJOgNSRsBsy5zRYf8FeuHDBOQ2iJVkS0DG0c4bdK1i3bp2Z8dUgW/fRQNufUrFiRZP6kdU69DGBmn6hj7izy5EjR8ziyZMnzXedcdebIDWnO71StWpVE4RrmoYWzdPWmy71CSnuRc+r+c96k6MWTV/RmyczWvRZzpoXrW9otGgqiv51wJevHqOz0/bMt51H7+uceozmZ2seuZbLly+bdutyixYtjJuu05QZ+8ZK3eZv4Trgr6Azjvd2HXBG62gFAuErQKAdvmMX8pZrbqanAC3kDaMBmRLQMfSUo33LLbeYoEyfeKEzrPran6JP9dC0Ck2J0Cd/ZLZofvT48ePNIwI1SNZcZPvJIi+99JK0tHLINa1Eb2p85pln0q1eg3bN8dabDjXFon79+vKXv/zFlXJiV6Az6Roo602Tmt+sueG9evWyN6f7Xdt27Ngx0WdVa0529erVZf/+/cZTg15Pvrqv5qLXrFnTpL7ojZ7pFe3/wIEDTV+0nZqPbX+QkHprbrqmymgajHtqTHr1pred60B6QuGx3dt1IDxaTysRcK5AjHWRTHZu82iZkwV0FlGf/lCrVi3TzPMbrswMOrnNtO0PgTw1r+Q666Py9GY7TcvwVHScNdj0lK7haX97nX5gjeYN61My3MuJEydMKkrqFAv3fdJb1idx6PHaLrvobK3md3vrh72fp+/aJj3OVx/1Uqn7xcVl7YZfvZlTZ7M1fcP9PL58NfjRPmlqT0aLtlNn9HV2P7WxBvzafvfza736WEB9uoyOWWYL14HMijlr/4xeB5zValqDQPgIMKMdPmNFSxEIiUB6Aai3RmlesN7Up7PhGnDbxVM+uL0to981iHQPsvU4naHOSpCtx2qbUgefut696PasBtlaj87IlyhRIs15fPnqDZSZCbL1PNpOnc1OHWTrNn1Eo3s/NUdfx0c/DTQYN7rqOSkIIIBANAtwM2Q0jz59RyCIApr6oF8U5wro02Y0V5yCAAIIIBAcAWa0g+NKrQgggAACCCCAAAJRLkCgHeU/AHQfAQQQQAABBBBAIDgCBNrBcaVWBBBAAAEEEEAAgSgXINCO8h8Auo8AAggggAACCCAQHAEC7eC4UisCCCCAAAIIIIBAlAsQaEf5DwDdRwABBBBAAAEEEAiOAIF2cFypFQEEEEAAAQQQQCDKBQi0o/wHgO4jgAACngT0UyQpCCCAAAL+CRBo++fH0QgggEBECrRs2VLq168vb775phw6dCgi+0inEEAAgWALEGgHW5j6EUAAgTAT2L9/v+zatUtWrVolgwcPltKlS0uPHj1k6tSpcuHChTDrDc1FAAEEQidAoB06e86MAAIIOFIgPj5e9u3bJxMnTpTOnTtLcnKyfPnll9K9e3cpW7asDBkyRFavXu3IttMoBBBAwEkCsU5qDG1BAIHsF6hVq1b2n5QzOl6gZMmS0qJFC8mXL580bdpUFi1aZNqcmJgoo0aNMl/XXnut9O7dW5o1a+b4/tBABBBAIBQCBNqhUOecCCCAgMMFjhw5IpMmTfLZSk0t0S8NyCkIIIAAAmkFCLTTmrAGgagSWL9+vSQkJEihQoWiqt901rfAV199JWfPnpWjR4/K+PHjZd68eSkOqFatmvTt21d69uwply9fFv4ykoKHFwgggIARINDmBwEBBBBAIIXApUuXJDY2ViZPnmy+Ll68aLbHxcXJnXfeaQLsxo0bm3UnT56U3bt3pzieFwgggAACVwQItPlJQAABBBBIIaBpI506dTIz1bqhXbt2JrjWmyE1Z5uCAAIIIJAxAQLtjDmxFwIIIBA1Anoj5GOPPWYe69enTx+TWhQ1naejCCCAQAAFCLQDiElVCCCAQKQI6JNFKAgggAAC/gnwHG3//DgaAQQQQAABBBBAAAGPAgTaHllYGQkCBw4dTdGNtZt+kzsee0Eef+E/KdZn54ulK9eZNjzzrw+y87ScCwEELIFLFy/J9l375Px5Pt2SHwgEEMgeAVJHsseZs2STwObfdsuwN/4nP6zeIPsOHpLSJUtIwzpV5bnH7pNDR4/L1DmLpHL5stnUmrSn+W3vQdOG+nWqp93IGgQQCIrAqvVb5bEX/y2rN2yxguwk80SVqpXKyWt/flDaNbsuKOekUgQQQEAFmNHm5yBiBDZs2Snt+v5Fvpy9SC5YM1e9u7aVetUryYq1m6V8mVKO6GeMI1pBIxCIHoHlazZJs96PyY+r1kvhggXMdaFxgzqyYfN26fLgUBn/Vcrng0ePDD1FAIHsEGBGOzuUOUe2CAx55R3ZeyDRmqFqJJ//e4Tky5vHnFc/TCNHDs/vKc+dS5Jn3vivzJy/TI6dOC11a1SWgfd0l65tmphj9U/Nf37tPVn00xrZte+g1KpSQZpfX1eee/w+s33j1l0y6KX/yJpft0lszpzSpEFtGTXsUYkvWcxs37nngPQb+rqs2bRVKpa9Su7p1tas5x8EEMgegcHW/8+kpAty2y03y5h//EVy5b7ya++v1v/rUR9OlKFWGtdt7ZtJbK5YGTbyfzJp1gLr//BAGT1+uixduV7iSxWTN599VFrcUM80WK8Zf35ttHy9cLkct54hfnX5BHnlyfvl5hvrm+12HWNfe1pefHucrFi3SWpUriB/uv0W6/9/m+zpNGdBAAHHCHiOPhzTPBqCQMYF1lkzVFp6Wr807SBbX3sLsnVb37++Km+P+0J27j0ghQrmlwU//Cz3PvWKzFm8QjfL/yZ/bbafPHVGml9XV/YnHrGC6ivnOXb8lLS+70mZv2yl1KlWScrGl5Qp3y6UWwc+Z47Vf24f9IJ8v3y1nDp1VhIPH5Nn/vmeaxsLCCAQXIGLFy7KqvWbzUke69PdFWTrir/072XW791/UDbv2GuWD1r/R7fv2iu9Bz8vy3/ZaF07YszM952DXpQTJ0+bfe77yz/kvc+mWW+sc0hT65qwbvM26fHwcNG0NS12HR3u/7MVqK+VAnnzypIVv8iAEW/I0eMnzT78gwAC0SNAoB09Yx3RPdWZ44OHjpg+tm3SMEN93bpzrwmMdeeF4/8tm+d8JI/dd6ucPX9eXnt/gqlj7pKV5nuNq8vL+y8/Keu//lDGvvYXs+6dT6fKocNHpZV1vm/HvCZLJ75l8r9/+mWD9ct9q5UPulVWWbNZWr4b94Zs/e5jub1jK/OafxBAIPgC23bvF/tTLSuXL5PihMWLFpai1iddatmyY0+KbWXjS8mWOR/Luln/kzLW8tHjx2XCzPmyzbqRUlPT8uTJLUs+f0u+ePt5eahXF3PN+ODzmSnqKGLVvf6bsbLJuq5Uq1TezKpPmb04xT68QACByBcg0I78MY66HhbMn7FPrrNnphOuKi3X1almnLq1vpIysm7Lb+b1nZ1uNt9nzV8q1dvfJyNGfSgxMVf+26zfssNsW7d5hzTo9pD5OnrilFn36/Zdsum3K7+89Zf2jfVrmZn1W5o3Mtv5BwEEgi+Q//f0MT2TpyeNXLiQZBqRL2/uFI25vm5NyWutKxpXSOpWr2y2bbNmutds3GaWc0iMtL73KfN//ss5S8y67bv2p6jjGuuvXKVLFDX/76/5vQ6dLacggEB0CRBoR9d4R2xvE64qKblz5zL9W7Ppyi/D9Dpr35iY28rNtEu+fHnN4slTpyU5OVl6tGsq8z4eKY0bXCNHjx2XV0d/Kt0HDDf7nLfyPrUUL1JIalhPMNCvVjdcK7e2byEJpYtL0oUr2wv8XqfuW6rYlRk0XaYggEBwBfS6YL/xXr1xa4qT6Sz2qTNnzbpqFRNSbNP/+3bJFXvl+hATE2PNXP8emOfP6/o/f731Jl3/z99wbU37EPO9qlududyuMSl24gUCCES8wB8RRsR3lQ5GsoDmYTeuX8fkWL/87qcyvV4tVz7moSPHpZgVDKcuja0bF7Vs27lH9JnbOvv0vXXTo5YKZeKtmesYE2w3aVhH5n/yhkyfu1RuGzhCFv64Sk6fOSdVK5Y1++qs16ejhpll939iVqw1Lzf/tksOHz0h+qfqhT/94r4LywggEGSBptfXk68XLJN/vPeZdcPitVLACpL1Bml9DKiWWlUrSblUTyVaZT0GUIvuZ79xr1WlorkZWtfrG/E3nn3EddOzrktdrPRuCgIIICAE2vwQRIzAC4P6Wn/OXSPzlq6Qmrf0s/IiE0TzsH+z/lx78Icv0/SzVPEickvLxqJpIZr6cW2tKtaxV3KyH7qrq9m/l3UT1GVrdkufRrJn/yGzrkTxouaX9YDe3eSDiTNksRU8t+rzpHkayZ4Dh2Tlus2y4sv/M+kiFcuVMedv2P0hqVfTqt+6cZKCAALZJ/CPp/qbG5KXr14vtazrQnXrL0+/7dkvO3bvk5zWk4JeeeoB86bavUX66L96nfubVXr9KF60iLSynipSxvpLVfNG15o32y3vHiJdrVSzS5eT5fsVa+TvTz4grRpfefKIe10sI4BAdAuQOhLd4x9Rvdc86Dlj/yl1a1a1ng5ySOYu/smaeT4rN1lPBsj9+yO9Und4/Mhh5s++l5Mvy5zvl0vhQgVl+MD75JG7uphdS1rBuD7676X/fCQfTpopFRKuktEvPGG2lStTUib9+3mpU/1q66kC1i/adz+WcVO+kTK/P9pPZ9n/98pT5mYq/fCcn9dvsW6kHCr581157GDqtvAaAQQCL1CzSnlZNOEtaWbNbJ86c8b81Wt/4mGpV6uqzB7zuni6b6Jn++ZyPilJNm79zZrtjpd3nh9sgmxt3SdvPGuuGfsPHpY3x0yS/3w0WY5b92aUst6AUxBAAIHUAjFWLtofyWipt/IaAR8CJ61nyO7evVtq1apl9jq/YbaPvbN304Wki3L4+Amff9p1b5H+N9D0Efv51+7b9Lm5B62nixQskM9KQSnsvsm1fPbcefP4vtIlillPJLiSK+7aaC3YqSnu60K9nKdmW9OE9evXS0JCghQqlDa9JtRt5PzOF3DydSC1nv4/33vgsMRbaWI5Y3Om3iwPDntDxk6eJYP63iav/fUh86g+/cuXp6JpJXv2H7Y+BCe/xBUu4GmXsFjHdSAsholGhrEAqSNhPHg03buAfiiFp6DZ2xGaj+1tf336QPmypb0datbrc7t97aP53xQEEAitgP4/LxtfIt1G2PNP3oJsrUD/YqV/1aIggAACvgRIHfGlwzYEEEAAAQQQQAABBLIowIx2FuE4DAEEEEAgsgT69mgnjerWMDcuR1bP6A0CCIRKgEA7VPKcFwEEEEDAUQL6KE/9oiCAAAKBEiB1JFCS1IMAAggggAACCCCAgJsAgbYbBosIIIAAAggggAACCARKgEA7UJLUgwACCCCAAAIIIICAmwCBthsGiwgggAACCCCAAAIIBEqAQDtQktSDAAIIIIAAAggggICbAIG2GwaLCCCAAAIIIIAAAggESoBAO1CS1IMAAggggAACCCCAgJsAgbYbBosIIOBb4NixY753YCsCCCCAAAIIuAQItF0ULCCAgCeBQ4cOyZtvvin169eXm2++2dMurEMAAQQQQAABDwJ8MqQHFFYhEO0CFy5ckJkzZ8qYMWNk2rRpcvnyZUNSvHhx2b9/v8THx0c7Ef1HAAEEEEAgXQEC7XSJ2AGB6BFYvXq1Ca4/+eQTSUxMNB2PiYmRzp07S9++faVLly6SO3fu6AGhpwgggAACCPghQKDtBx6HIhAJApp3PX36dPnss89k1apVabrUtGlTyZcvn4wfP14GDBjgCsDT7BgBKzp27CgzZsyIgJ7QBQQQQAABJwgQaDthFGgDAiEUGDp0qCxYsMBrCxYtWuTaljNnTtdyJC5ougwFAQQQQACBQAkQaAdKknoQCFOBd999V3LkyCGTJ0+WsWPHyqZNm1L0RG+A7NWrlxQtWtTMbGsaSSQWTZGhIIAAAgggEEgBnjoSSE3qQiBMBcqUKSPPPPOM/Prrr7J48WLp37+/xMXFmd7MmzdPHn30UROIx8bGyqVLl8K0lzQbAQQQQACB7BUg0M5eb86GgOMFmjRpIu+9957s27dP9KbItm3bysWLF2XChAnSqVMnOXLkiOP7QAMRQAABBBBwggCpI04YBdqAgAMF9AbIu+66y3zt3r1bPvroIzl48KCULFnSga2lSQgggAACCDhPgEDbeWNCixBwnEBCQoJJLXFcw2gQAggggAACDhYgdcTBg0PTEEAAAQQQQAABBMJXgEA7fMfOMS23P8Bk974rH3DimIbREK8C9ljZY+d1RzYgkEEB+2fJ/tnK4GHsFkIBe6zssQthUzg1AhErQKAdsUMb/I7p49D0q2LFiuZks5esCP5JOUNABOyx0rGzxzEgFVNJ1AnYPz9cB8Jv6LkOhN+Y0eLwEyDQDr8xc0yL9ResfoCJPpVCy4v/GSeHjhx3TPtoiGcBHSMdKy06djqGOpYUBLIiwHUgK2qhP4brQOjHgBZEhwCBdnSMc1B6qQFarly5pFu3blKjRg3Zs/+gNLr1Eflw8tdi/0kyKCem0iwJ6Jjo2OgY6VjpmOnY6RhG+ic+ZgmMgzIkwHUgQ0yO2YnrgGOGgoZEiUBMslWipK90M8ACFy5ckKNHj8pvv/0mK1eulJEjR6b5VMEAn5LqAiRQrVo1GTJkiDRo0ED0T/76qY8acEdzsWf1uSRm7qeA60DmvJy0N9cBJ40GbYlUAQLtSB3ZbOiXBiSnT5+WAwcOyI4dO2TPnj0yY8YMWbp0qezdu9d8yEk2NINTZFBAP9VRPwGycePG5oNnypYtKxUqVJDSpUtLgQIFoj59hEA7gz9IqXbjOpAKxOEvuQ44fIBoXsQJEGhH3JBmb4f0EwNPnDhhPshEg+vExETz+vz58+ajujMzO6hB+2effSYPPPBA9nbCx9l01leLztaHc7HzaPPkySOFCxc2HzqjQXepUqXMa/3lG+2FQDvrPwGBvA5kvRVpj/zggw+kd+/e5o1k2q3ZvybU1xOuA9k/5pwRAX678jPgl4AGaAULFjR1aOqBLh8/flzOnj1rZrQ10M5osD1z5kxZt26d5M+fX4oVK+ZXuwJ9sH5gS7gW/eWqXzpW+mmPcXFxUrx4cZMuouNFkB2uI+ucdgfyOhCoXh05csRcT7Zu3SodO3YMVLUBqScU1xOuAwEZOipBINMCBNqZJuOA1AL6DNZChQqJftfATYPspKQkuXz5coaDbK1zxIgRpuoNGzbIgw8+mPo0IX1du3btkJ7f35PrL9kcOXKYMdJgW1NFdHY72vOy/XXl+D8EAnUd+KNG/5bee+89U8GyZcvkz3/+s3+VBfjoUF1PuA4EeCCpDoEMCJA6kgEkdsmYgM5c65+QL126ZL400M5oWbt2rTRp0sTsXrVqVVmxwhnP5NY0Cy2aHhPuRQNtfUKEfukMpP7SpfwhYHtk9C8wfxzJkruAP9cB93r8XW7YsKFs3rzZVLNkyRKpU6eOv1X6fbwTridcB/weRipAIFMCzGhnioudfQlooKIzpFmZJf38889dVesvxzVr1rgCb9eGEC7ojD0FAQTSF/DnOpB+7RnbQ2/ItoNsPUKvL3oTsFMK1xOnjATtQCD4AjxHO/jGnCEdAX082CeffJJirzFjxqR4zQsEEEAgowKprx96fdHrDAUBBBDIbgEC7ewW53xpBPQmSH1aiXvRGSjN9aYggAACmRHQ68aECRNSHKLXF73OUBBAAIHsFiDQzm5xzpdGIPXsk+6gTy6ZMmVKmn1ZgQACCPgS0OuGXj9SF0/XmdT78BoBBBAItACBdqBFqS9TAocOHZJp06aZG/OaNWtmjr355pvNd34xZoqSnRFAwBIYO3ascbCvI3pd0bxxvc7o9YaCAAIIZKcAgXZ2anOuNAKaO6lPJ+nUqZPEx8eb7b169TJPxZg9e7bs3r07zTGsQAABBDwJ6PXi22+/NdcPvY5o0euKXl/0OpP6XhBPdbAOAQQQCKQAgXYgNakr0wL2rHXfvn1dz9wuWrSo3HrrraaucePGZbpODkAAgegUsK8Xev3Q64gWfdygXl+02Ncb84J/EEAAgWwQINDOBmRO4Vng2LFj5pegfkphly5dZMGCBeYZz/qBKvfdd5/5gJUDBw54Ppi1CCCAQCoBvV7oc6I1sNbriD4zXq8ren3RT5vVoFuvOxQEEEAguwT4wJrskuY8XgX2799v/rzr/oEh+qE3+hHKJUuW9Hpcdmxwb1N2nI9zhE6AsQ6dfSDPrE8Y0aBag2z3MbWvM4E8V2brcm9PZo9lfwQQCE8BAu3wHLeIbLUTfwk5sU0ROfgO6BRj7YBBCHATnDamTmtPgLmpDgEEPAiQOuIBhVUIIIAAAgggkFIgKSlJSOdLacIrBNITINBOT4jtCCCAAAIIRKiApuht3brVa+9+/PFH17bvvvtOHn/8cdfrUC+k1/ZQt4/zI6ACsTAggAACCCCAQHQK6KdoakrL1VdfnQbg4MGD8uyzz4o+alVLhw4dpH379mn2C9UKX20PVZs4LwKpBZjRTi3CawQQQAABBBwi0LZtW9GZ5Jo1a0qfPn1Mq7Zt2yYtW7aUUqVKiX4wz44dO8z6ffv2ye23326C5muvvVY+/PBDs15TPgYOHCgJCQlSpUoV16fuTp8+3QTSL730ktSrV0+WLVvm6rXeVKrnXrJkidn2wgsvyNy5c009upMuDxs2zLRJn1V+0003yfbt26Vfv35StmxZ6dq1q2zYsMFVn7c26w4TJ06UGjVqmJvfu3Xr5kpPOXfunFxzzTWuOnThiSeekJkzZ4qvtqc4gBcIhFiAQDvEA8DpEUAAAQQQ8CawfPlyeeONN2TSpEmuT7187LHH5N577zUf6NWuXTt55ZVXzOG6X5s2bUwqiAajuqzls88+Ew2c16xZY4LaQYMGiT7ZSR97qPVowLx69Wq58cYbzf76jz7x6Z133jHrdNuIESPkzJkzorPcWnT55Zdflu7du5tAv0GDBiZYtgPu66+/XkaPHm321X+8tfnEiRPy1FNPmXNt2bJFqlWrZtqjx+jjGHfu3KmLrqL9OH36tM+2u3ZmAQEHCBBoO2AQaAICCCCAAAKeBDSg1SC1du3a5hnhOsurM8c9e/aUs2fPSu/eveWrr74yQWnu3Lll/vz5JqguU6aMlCtXzlSpQffDDz9sjq9cubKZ8V68eLGn02VqXcWKFc2Hi+XJk8d8L1iwoPzpT38SbYfOrGtbtPhq8zfffGNmzlu1aiVxcXEmoP/6669Nf8zB/INAmAuQox3mA0jzEUAAAQQiW0DTQ+yydOlS2bNnjwlO7XUaVB8+fFj+9re/yd///neT6qEB79ChQyV//vwm9WTz5s3m2eL2MXv37rUXs/xd003souepVauW69nlBQoUMDPPut1XmzUtpmHDhnY1UqhQIRNwb9y4UTSQT110lpuCQDgJEGiH02jRVgQQQACBqBPQGWK76KyxBqP6NBD7udz2Nv2uwbY+GWTIkCHmS9M3NOh96623TB61+77+LufKlStFFZ7aozv4arO+SdCg2i6aT37o0CEz665B9YULF8zstl33unXrRPO4KQiEiwCpI+EyUrQTAQQQQCDqBfTmQP2Y+cmTJ7ss9DF3Wk6ePGm+Fy1a1NyUqPnMWjp16iTvv/++yavW16dOnRINaLVUqlTJpKKYF6n+0RllTVPxt/hqc+vWrc1TTfSTO7XojZHNmjUz6SeaklK3bl35+eefzTbN4V61apVZ1n98td21EwsIhFiAGe0QDwCnRwABBBBAIKMCefPmlfHjx5tAWlNDNP9Zb0ScOnWq6NNDfvjhB9GZZr3Z8bXXXjPV6np9Gkj58uXFTjPRdA593aNHD3ND44oVK+S5556Tpk2bupqiTw/RoLdRo0Zmn9RPAHHtmM6CrzY3adLEPMnkhhtuMDPfWtWnn37qqlGfMqI3bGpqSs6cOaVXr16ubb7a7tqJBQRCLMBHsId4ADj9HwL2nwadlIPnxDb9IcZSIAUY60BqOqMup41poNtz9OhRE1RraoZdLl++bHKjNb0kddGgXGezixcvnibtRHO8db2nok8GyZcvnzmXp+2ZWeepzXq8Xvf1PHpDpKeis/We+qT7+mq7p7pYh0B2ChBoZ6c25/IpEOhfQj5PlsGNTmxTBpvObpkUYKwzCRYGuzttTJ3WnjAYQpqIQNgLkKMd9kNIBxBAAAEEEEAAAQScKECg7cRRoU0IIIAAAggggAACYS9AoB32Q0gHEEAAAQQQQAABBJwoQKDtxFGhTQgggAACCCCAAAJhL0CgHfZDSAcQQAABBBBAAAEEnChAoO3EUaFNCCCAAAIIIIAAAmEvQKAd9kNIBxBAAAEEEEAAAQScKECg7cRRoU0IIIAAAggggAACYS9AoB32Q0gHEEAAAQQQQAABBJwoQKDtxFGhTQgggAACCCCAAAJhL0CgHfZDSAcQQAABBBBAAAEEnChAoO3EUaFNCCCAAAIIIIAAAmEvQKAd9kNIBxBAAAEEEEAAAQScKECg7cRRoU0IIIAAAggggAACYS9AoB32Q0gHEEAAAQQQQAABBJwoQKDtxFGhTQgggAACCCCAAAJhL0CgHfZDSAcQQAABBBBAAAEEnChAoO3EUaFNCCCAAAIIIIAAAmEvQKAd9kNIBxBAAAEEEEAAAQScKECg7cRRoU0IIIAAAggggAACYS9AoB32Q0gHEEAAAQQQQAABBJwoQKDtxFGhTQgggAACCCCAAAJhL0CgHfZDSAcQQAABBBBAAAEEnChAoO3EUaFNCCCAAAIIIIAAAmEvQKAd9kNIBxBAAAEEEEAAAQScKECg7cRRoU0IIIAAAggggAACYS9AoB32Q0gHEEAAAQQQQAABBJwoQKDtxFGhTQgggAACCCCAAAJhL0CgHfZDSAcQQAABBBBAAAEEnChAoO3EUaFNCCCAAAIIIIAAAmEvQKAd9kNIBxBAAAEEEEAAAQScKECg7cRRoU0IIIAAAggggAACYS8QG/Y9oAMRJxATExNxfaJDCCCAAAIIIBB9AsxoR9+YO7bHHTt2dGTbOnXq5Mh20SgEEEAAAQQQcLZATLJVnN1EWocAAggEX8D+SwqXxOBbZ9cZnDamTmtPdo0D50EgmgWY0Y7m0afvCCCAAAIIIIAAAkETINAOGi0VI4AAAggggAACCESzAIF2NI8+fUcAAQQQQAABBBAImgCBdtBoqRgBBBBAAAEEEEAgmgUItKN59Ok7AggggAACCCCAQNAECLSDRkvFCCCAAAIIIIAAAtEsQKAdzaNP3xFAAAEEEEAAAQSCJkCgHTRaKkYAAQQQQAABBBCIZgEC7WgeffqOAAIIIIAAAgggEDQBAu2g0VIxAggggAACCCCAQDQLEGhH8+gHoO9nz56V8ePHyyuvvCJHjhzxWuPBgwfl3LlzZvvUqVNl/fr1XvcNxoYpU6bIxo0bA151dvQlq+fYvHmzTJo0yWufg2Xi9YRsQAABBBBAIMoECLSjbMAD3d3+/fvLpk2b5LrrrpNChQp5rX7o0KEyY8YMs33y5Mmydu3aNPt269ZNKlasKPXr10+zzd8VEydODEhwr28mtm7d6mqOt764dgjAQlbPoW8sJkyY4LUFtsn06dPlmmuukbi4ONGgnoIAAggggAACgRGIDUw11BKNAsnJyTJ79mz54IMPJG/evD4JdJ+YmBif++jGd955Rzp27JjufqHaQQNX7cfVV18dqiYE/LxdunQR/brtttsCXjcVIoAAAgggEM0CzGhH8+j70ffExETRGWhNCbnhhhvkpZdeEg2877//filfvrzUrl1bXnzxRdcZnnzySdeMtmtlOgt/+tOfZOHCha695syZI48++qh5PXfuXBk+fLjojHrZsmWlbdu2Mn/+fNe+P//8szRo0EBKly4td911l1y8eNG1LSkpSQYOHCgJCQlSpUoV0RQKuzzxxBOyYMEC6dChgxQtWlQuXbpkbxKd+X322WdNX+vVqyfLli0z27Zt2yZNmzY1s/EPPvigHDp0yHWMtuu7776TmjVrSp8+fcx6DdarVq0qZcqUkcGDB7vOMXPmTGnRooXxa926dYpUF1/n0JnpGjVqSMmSJc2YHDhwwHV+9wVfJu77sYwAAggggAACgREg0A6MY9TVokGdBqh58uSR1atXy7Bhw8xM79133y2//PKLCZDHjRsnu3fvNjYafJ4+fTpTThowag64Xc6cOSMa4GvRZQ3ub7rpJtm+fbs89NBD8vzzz9u7ymOPPSZ9+/aVHTt2SOfOnVPkKn/22WemnjVr1ogGqYMGDXIFu9rOAQMGyAMPPGD2yZkzp/atHW4AAB29SURBVKtOnfW99957TV+1zzfeeKPZ9uGHH8rIkSNlw4YNokG81mmX5cuXyxtvvGHOP3bsWDl+/Lg8/fTTxk6d9GvevHnmTcpTTz0ln376qWmzHlOpUiW7GvF2jhMnTogep38J2LJli1SrVs20z3Wg24IvE7fdWEQAAQQQQACBAAkQaAcIkmquCOhMbJEiRUwqyfXXXy+LFi0KGo3OZGswnTt3bunZs6cJWjUwP3XqlOiNgBpYakqLzmg3btzY1Q6dOX744YclR44cUrlyZZMGsnjxYtf2Jk2amDSK2NiMZVZpqov2NV++fHLnnXfKt99+66pL3xBoO3SGX8+ns/Jdu3aVcuXKSa5cucwMtOZFazqKzp5r2/S7zpjrmxi7eDvHN998Y2bzW7VqZXKsR4wYIV9//bUJ3O1j9Xt6Ju77sowAAggggAACgRHIWCQRmHNRS4QLaDCnNz3qTLEGnb/++qu0b98+YL3W1BT30rBhQ9dLDWI1cD1//rz89NNPUqdOnRQ54ZqmYRdN5dBA3H22eu/evfZmufnmm13LGVlwb0fBggVNUOt+nHt9mvIya9YsWbJkiWsXDaq16Hr1e/XVV+X111+XHj16uPbxdg7ti/s2vSFVb2pM/YQVTXPxZeI6EQsIIIAAAgggEDABAu2AUVKRpi/ozKydK929e3e/UHRG2T23et26dSnq05lsT6VAgQKiOc3uxf1JIbr9rbfeMmkn7vvYyxqwZ6Z4a4ddh/t2Pbfmto8aNcre7Pqus+uav61pKb169TJPcWnTpo3Z7l6H6wBrQd9AuAfVmrqi6S96s6amktglPRN7P74jgAACCCCAQOAESB0JnGXU16QBoj7mT8u+fftMGoQ/KM2aNZPvv//eVKEpGJoSkZGij6rTXGjNj9aiOdyrVq1yHdqpUyd5//33TZ63rtSZeA1QM1I0b1rry2rRc2tuu+aOa7l8+bJpq87Wazu06Ay3poLY+ehmpZd/NFVHn/yyf/9+s4fmh6tb6sA8PRMv1bMaAQQQQAABBPwQYEbbDzwOTSnwyCOPiH6NHj3abNCbCv0pt99+u3lShwbv+vxqvdFS01HSK5q+oYG0pq1UrFjRBJ06Q2wXvYmyX79+5ukeOiN8+PBhWbp0qXlt7+Ptu6Zz6Ez9ihUr5LnnnvO2m9f1LVu2NE880WBaZ7B37txpUkX0Jkttr6bcaI52sWLFRPufXtF8cn2Cij75RfutRW+oTF3SM0m9P68RQAABBBBAwH+BGGsmLWXiq/91UkOUC+iTMAoXLpxpBU2p0KeHpH6Ots70aupDRp7D7X5S/dHWtmjOsqein1SpdRcvXjzTdWtwrsdltWjbdMZaHyHonqqiN3Nqyoz7uoycI72+2nX42k+fo62PINRxiMZi/3ypESUyBJw2pk5rT2SMMr1AwNkCpI44e3zCsnVZCbK1ozqLO2TIEJM64d5xnY21f0G5r09vWY/xFmTrsfpEkhIlSmSpbn+CbD23tq1UqVJpAmqd0c5skG3X56uvuo8WTybTpk0zT0XRm0jT++ChK7XwLwIIIIAAAghkRIAZ7YwosQ8CCES8gP1mjhntyBlqp42p09oTOSNNTxBwrgAz2s4dG1qGAAIIIIAAAgggEMYCBNphPHg0HQEEEEAAAQQQQMC5AgTazh0bWoYAAggggAACCCAQxgIE2mE8eDQdAQQQQAABBBBAwLkCBNrOHRtahgACCCCAAAIIIBDGAgTaYTx4NB0BBBBAAAEEEEDAuQIE2s4dG1qGAAIIIIAAAgggEMYCBNphPHg0HQEEEEAAAQQQQMC5AgTazh0bWoYAAggggAACCCAQxgIE2mE8eDQdAQQQQAABBBBAwLkCBNrOHRtahgACCCCAAAIIIBDGAgTaYTx4NB0BBBBAAAEEEEDAuQIE2s4dG1qGAAIIIIAAAgggEMYCBNphPHg0HQEEEEAAAQQQQMC5AgTazh0bWoYAAggggAACCCAQxgIE2mE8eDQdAQQQQAABBBBAwLkCBNrOHRtahgACCCCAAAIIIBDGAgTaYTx4NB0BBBBAAAEEEEDAuQIE2s4dG1qGAAIIIIAAAgggEMYCBNphPHg0HQEEEEAAAQQQQMC5AgTazh0bWoYAAggggAACCCAQxgIE2mE8eDQdAQQQQAABBBBAwLkCBNrOHRtahgACCCCAAAIIIBDGAgTaYTx4NB0BBBBAAAEEEEDAuQIE2s4dG1qGAAIIIIAAAgggEMYCBNphPHg0HQEEEEAAAQQQQMC5AgTazh0bWoYAAggggAACCCAQxgIE2mE8eDQdAQQQQAABBBBAwLkCBNrOHRtahgACCCCAAAIIIBDGAgTaYTx4NB0BBBBAAAEEEEDAuQIE2s4dG1qGAAIIRIzAsmXL5IUXXpAffvjBa5+SkpLkwIEDZvvmzZtl0qRJXvdlAwIIIBAOAgTa4TBKtBEBBBAIY4Fp06bJ8OHDpVmzZlKyZEmvPfnuu+/k8ccfN9s3btwoEyZM8LovGxBAAIFwEIgNh0bSRgQQQACB8BWYMWOG3H///XLzzTf77ESHDh2kffv2PvdhIwIIIBBOAsxoh9No0VYEEEAgzARGjBhhZqafeeYZad68uWn9Rx99JDVr1pQKFSrI3XffLfv37zfr586dKwMHDgyzHtJcBBBAwLsAgbZ3G7YggAACCPgpoHnZrVq1krffflsWLlxoarv22mtl+vTpsnXrVilSpIiMHz/erD9z5owcPHjQzzNyOAIIIOAcAQJt54wFLUEAAQSiQqBu3bpSpUoVSU5OlpYtW7oC8KjoPJ1EAIGoEiBHO6qGm84igAACoRcYPXq0fPnll3L+/HnRJ40ULVo09I2iBQgggEAQBAi0g4BKlQgggAACngW2bNkir7/+uqxZs0by5csnn3zyiSt1xPMRrEUAAQTCV4DUkfAdO1qOAAIIhJ3AunXrpEaNGibIvnDhggm0w64TNBgBBBDIoACBdgah2A0BBBBAwH+BW265Rc6ePSuNGzeW2rVri76mIIAAApEqEGPdjJIcqZ2jXwgggEBGBWJiYsyuXBIzKubffidPnpSCBQuK7e5fbZ6Ptut2ypg6rT2e1ViLAAKBFGBGO5Ca1IUAAgggkCGBQoUKBTXIzlAjsmkn+znh7qe7dOmSJCYmuq9iGQEEIlCAQDsCB5UuIYAAAgiEXuD48eOizwyvU6eOebqKfvx8zpw55auvvpLZs2dLfHy8DBkyJPQNpQUIIBA0AQLtoNFSMQIIIIBANAvExcVJjhw55PDhw+YDelq0aCE6k6056mPGjJHLly9LqVKlopmIviMQ8QIE2hE/xHQQAQQQQCBUAn379jWn1sDaztE+evSoTJ482azv06dPqJrGeRFAIBsECLSzAZlTIIAAAghEp8Bdd91lZrVnzJghdq62fuT8xYsXpV27dpKQkBCdMPQagSgRINCOkoGmmwgggAAC2S9QokQJ6dq1q/m4+UWLFpkGzJs3z3y3Z7uzv1WcEQEEskuAQDu7pDkPAggggEBUCngKqDV/u3v37lHpQacRiCYBAu1oGm36igACCCCQ7QIdO3YUfeKIe7nzzjvNp2O6r2MZAQQiT4BAO/LGlB4hgAACCDhIIFeuXHL33XenaJGnWe4UO/ACAQQiQoBPhoyIYaQTCCDgr4D9RAinfIqgv/3heHE95cMJY7p69WrzTG0dl2rVqsmvv/7KECGAQBQIMKMdBYNMFxFAAAEEQitQr149V6DNbHZox4KzI5CdAgTa2anNuRBAAAEEolbADrB5dnbU/gjQ8SgUiI3CPtNlBBBAAAEEsl1A87T1o9d5dna203NCBEImQKAdMnpOjAACCESegOZDjx49Wj788ENZu3atnDlzJuSdtPPvQ96Q3xsQyvbkz59f6tSpI/369ZOHHnrIlcfuFBvagUCkCXAzZKSNKP1BAIEsCdjBjxNunMtSBxxw0K5du0TTIhYsWOCA1tCE9ARatGgh48aNk3LlyqW3K9sRQCCLAgTaWYTjMAQQiCwBAm3/xjMpKUnatm0rCxculLLxpWT4wD7StklDSbgq5fOj/TsLR/srsHtfosxeskJe/M842bP/oDRv3tyks+TOndvfqjkeAQQ8CBBoe0BhFQIIRJ8AgXbWx/zixYvy9ttvy+DBg02Q/ePkd6REsbisV8iRQRc4dOS4NLr1ERNsjxo1Sh599FGJjSWbNOjwnCDqBHjqSNQNOR1GAAEEAiegqTbnzp2TMWPGmEp1JpsgO3C+wapJx0jHSouOnY4haVPB0qbeaBYg0I7m0afvCCCAgJ8COputNzxu2LDB1KTpIpTwELDHSsdOx1DHkoIAAoEVINAOrCe1IYAAAlElcOnSJROknT9/3vSbnOzwGX57rHTsNNDWsaQggEBgBQi0A+tJbQgggEBUCWhwduHChajqcyR2VseQQDsSR5Y+hVqAQDvUI8D5EUAAgTAW0LxeArQwHsDfm65jSI52+I8jPXCeAIG288aEFiGAAAJhI6DBGQFa2AyX14Yyjl5p2ICAXwIE2n7xcTACCCCAAAIIIIAAAp4FCLQ9u7AWAQQQQAABBBBAAAG/BAi0/eLjYAQQQAABBBBAAAEEPAsQaHt2YS0CCCCAAAIIIIAAAn4JEGj7xcfBCCCAAAIIIIAAAgh4FiDQ9uzCWgQQQAABBBBAAAEE/BIg0PaLj4MRQAABBBBAAAEEEPAsQKDt2YW1CCCAAAIIIIAAAgj4JUCg7RcfByOAAAIIIIAAAggg4FmAQNuzC2sRQAABBBBAAAEEEPBLgEDbLz4ORgABBBBAAAEEEEDAswCBtmcX1iKAAAIIIIAAAggg4JcAgbZffByMAAIIIIAAAggggIBngVjPq1mLAAIIRKdATExMdHacXiOAAAIIBFyAGe2Ak1IhAgiEo0DHjh3Dsdm0GQEEEEDAwQLMaDt4cGgaAghkn8CMGTOy72QRdKaTJ0/K7t27pVatWhHUK7qCAAIIBEaAGe3AOFILAggggAACCCCAAAIpBAi0U3DwAgEEEEAAAQQQQACBwAgQaAfGkVoQQAABBBBAAAEEEEghQKCdgoMXCCCAAAIIIIAAAggERoBAOzCO1IIAAggggAACCCCAQAoBnjqSgoMXCCCAAAKRKvDAM/+UEyfPyKt/6S+Vyl1lurl1516Z9PVCWbZqvSTEl5RH7+4uNa4u55VgX+IRyZMrVooVKex1HzYggAACtgAz2rYE3xFAAAEEHCfQ4q4hkqdmW3n3s+kp2tZ9wAiz/pV3P0mx3teLbxf9JFPnLJIjJ065duv5yN9kxMj/yreLlsv/Js6UIoULuLbZCydOnpb+z/5Lrmpym1Rsfqdc1fhWKd+8tzz/1kdy6eIleze+I4AAAmkEmNFOQ8IKBBBAAIFoEFjz63bZuPU3KVY0TjZ+PdZ0OS5VoH3xwkVpfvcQ2bB5u+SyZrLbNWskhQrklzlLf5JX3hkn6zb9Jp+/NSIauOgjAghkQYBAOwtoHIIAAggg4DyBf/13oiz4cbWsXLdJihQqKK0aN5DH7+shVSqUTdPYDVt2ysDn/23Wnzx1Wm647RGz/zvPD0qx78gxk02QXSa+lCz5/C25qmQxs/2ntZuk6R0DzQz5d0t/to6tL8NG/k8mzVogo4YNlNHjp8vSleslvlQxefPZR6XFDfVc9X4yba7884MJsnPfASlZtKjc17Od/PXBXpIjRw7rmHXS7+nXZMDd3eTg4aMy4at5EhsbK7fd0lyetvYpaAX5FAQQCB8BUkfCZ6xoKQIIIBC1Apu37xYNaO2vI8dPpLFYYgWpK6wAuEHtaiIxIqM/myp3P/lKmv10xYatO+TY7ykkuWJzmpzruEJpg9jFVp1aurW+yRVk6+vr6lSTxg2u0UUT3Ov3g4ePyfZde6X34Odl+S8brcA5xgTpdw560coNP627yMRZC+X+v/5D9hxMlDaNG8q58+fluTc/FH2ToOXMufOmjufe/J/88/3xkidPbuv1Hnn9vc/k0+nzzD78gwAC4SPAjHb4jBUtRQABBKJW4O1xX4h++Sofvf605M+XR2JiYmTX3kSp0vouWb1+s5w7lyR58+ZOcWjP9s2sfOyCcsv9f5H4kiXMbHWKHX5/sXPvAbNUMaF0ms0VypaWJStEtu/en2JbWWv2+6cv/k/OWkF0g+4Py979B2XCzPnS/85O8voH482+Lw95wLzWmfGbbn9Uxnzxjfy5/52ues6cPS+fjhwut3ZoLn997T0Z9eFEmTZ3sTzYq5NrHxYQQMD5AgTazh8jWogAAghEvcCN9etIlYp/pIAsWv6L7Ni9L4XL5G8WWU8QWSC79yfK6bPnzLbk5GSznDrQTnGgjxd5rRllLeeTLqTZK+l8klmXJ3euFNuur1vTBPZ6zrrVK5tAe5s1063lt9/b/KaVkvLup9Ncx+3cmzJY13zwTi1vNNtvvLaW+a79oiCAQHgJEGiH13jRWgQQQCAqBXp1aSUDendx9V2fOuIeaL859gv5yz/elSJxhaVzq8YmwNXX/pYKZUrJijUbZf2WHWmq2rRjj1l3dfkyKbZpcG+XXFZ+tRadZb98+bKVKnIlOK+UEG9uqtRtNSqlfZxggjUrbr85yJ0qkNdjKAggEB4C5GiHxzjRSgQQiDCB4cOHS7169aRy5crSr18/07vJkyfL008/naKn1atXd73esmWLtG7dWooVKyYVKlSQTZs2mW2ff/651KhRQ+Li4qRDhw6u/SdMmCBVq1aVMmXKyODBg+XSpSuPops5c6a0aNFCypcvb+rbuHGjOcZTm1yVOXxhzvc/mRbe3bWN/PeVp+SmhnUC0uKOLRuber6at0RWrt/iqnO8dZPimo1bJGfOnNKxxQ2u9bqwasOV/TSwXrNpm9lWq0pFc7NjhTLx5nXbZtfLp6OGpfgyG37/RwNzuyRf/iNwt9fxHQEEwkOAGe3wGCdaiQACESSwfPly0a+ffvpJLly4IFu3bjW9O3XqlBw6dChFT7dtuxKo6cpBgwZJ8+bNZcqUKXLmzBkpWbKkHD9+XJ544gl59913pVOnTrJ375UUBV2vQfv06dMlPj5e7rjjDpk3b54JrJ966imZPXu2CcB/+eUXqVSpkmmPpzalaIyDX1xfr4Z8+/1ymbN4hXn6x5Rvvw9Ia/t0byPvfDJVVq7dKK3vGSx1a1SVc0lJJvdbT3CXFdjXrVE5xbn0UYD1Ovc3636zUkaKFy0irW6sb14PuKebDHnxLXnp7Y/MjZvlryopazf/JuWvKi1vDn80RT28QACB8BdgRjv8x5AeIIBAmAnoLKjOTq9evVry588v11xz5ekVvrpx7tw5WblypQwbNkwKFy5sgmetRwPmtm3bSpcuXcyMaUJCgqlmzpw50rVrVylXrpz1/Odc0q1bN5k6dapJYdCZbZ3V1u86q54nTx4zM5vZNvlqb3Zv69fzFrnpurqyaftO+Y+VRnJLi0ZyT4/2AWnG3I/+Kf17dbFSPQrKsp/Xyirr8YGa2vHyk/3l/ZefTHOOnu2bWzndSeYZ3eWsGex3nh8sZUoXN/tp+oselyd3bhk/fY68Zj1NRJ+WcnWFlOknaSplBQIIhKVAjJVLxt+kwnLoaDQCCISzwFdffSXPPPOMCYRHjRplUjzGjh0rixYtkg8++MDVNX2G8sWLF2XBggXy3HPPmVlp10ZrYeDAgVK7dm0ZMGCA+2p55JFHZNasWVKiRAnXeg2qtW6dJR86dKisWLFCXn/9denRo4fZx1ObXAd7WTh58qTs3r1batW6csPe+Q2zveyZPauPHDshcQULSE7rkX3BKIePnrCC5FiPz7N+cNgbMnbyLBnU9zZ57a8Pmcf9lSpexGsz9HGAml6i++gztENR9FM3taxfb30EvfUmrVChQqFoBudEIGIFSB2J2KGlYwgg4GSBzp07m1SPjz/+2KSD7Nq1y3wwiaaS2EVnmO28ag1k3dNI7H00yN68ebP90vW9QIECZhZbg/jURfPCNX9bZ9R79eplgqs2bdqItzalPt7Jr4sVKRzU5hUvmn799vyVryBbG5ne9qB2hMoRQCBbBELzFjpbusZJEEAAAWcKaC62BmN6w1vv3r1NoHv69Glp1qyZLF261Mxyasu/+OKP50ZrPvZVV10l33zzjatTGoRrXrbOXNu52Tr7rUXXay73jh1XnpahM6eat63n1fNr0RnuVq1aSWJiolnnqU1mR/5BAAEEEMiSADPaWWLjIAQQQCDrAhpMaxpIwYIF5ezZsybtQ58Yol/6VJE6deqYIFyX7ZxrPdvLL78s9913nxQpUkSSrBxgfUqJ5nf37NlTatasKVWqVDFB+/z586Vly5YmrcR+ssnOnTvl1VdflXvvvVfat28v+fLlM7Pl+gST22+/3aSkeGpT1nsZfUf27dFOGtWtIfVqVom+ztNjBBDwKECOtkcWViKAAALBF9AZZg2uUxcNonV2WW9S9FSOHj0qRYsWTbFJZ7d1VlxvlHQvWo/OWOv+elOkXTTA1/xv93W6zVub7ONSf3dajnbq9vHatwA52r592IqAvwLMaPsryPEIIIBAFgU8BdlaVW7riRS+SuogW/fVJ5CkDrJ1vaanlCpVShdTFJ3R9lS8tcnTvqxDAAEEEPAtQI62bx+2IoAAAggggAACCCCQJQEC7SyxcRACCCCAAAIIIIAAAr4FCLR9+7AVAQQQQAABBBBAAIEsCRBoZ4mNgxBAAAEEEEAAAQQQ8C1AoO3bh60IIIAAAggggAACCGRJgEA7S2wchAACCCCAAAIIIICAbwECbd8+bEUAAQQQQAABBBBAIEsCBNpZYuMgBBBAAAEEEEAAAQR8CxBo+/ZhKwIIIIAAAggggAACWRIg0M4SGwchgAACCCCAAAIIIOBbgEDbtw9bEUAAAQQQQAABBBDIkgCBdpbYOAgBBBBAAAEEEEAAAd8CBNq+fdiKAAIIIIAAAggggECWBAi0s8TGQQgggAACCCCAAAII+BYg0Pbtw1YEEEAAAQQQQAABBLIkQKCdJTYOQgABBBBAAAEEEEDAtwCBtm8ftiKAAAIIIIAAAgggkCUBAu0ssXEQAggggAACCCCAAAK+BQi0ffuwFQEEEEAgAwK5c+c2e+3el5iBvdnFCQL2WNlj54Q20QYEIk2AQDvSRpT+IIAAAtkoEBMTI/pVsWJFc9bZS1Zk49k5lT8C9ljp2Nnj6E99HIsAAmkFCLTTmrAGAQQQQCCDAhqg5cyZU9q2bWuOePE/4+TQkeMZPJrdQiWgY6RjpUXHTsdQx5KCAAKBFSDQDqwntSGAAAJRJaABWq5cuaRbt25So0YN2bP/oDS69RH5cPLXYqcmRBWIwzurY6Jjo2OkY6VjpmOnY6hjSUEAgcAKxCRbJbBVUhsCCCCAQLQIXLhwQY4ePSq//fabrFy5UkaOHCmbNm2Klu6HdT+rVasmQ4YMkQYNGoimjxQtWtQE3GHdKRqPgMMECLQdNiA0BwEEEAgnAZ2rOX36tBw4cEB27Nghe/bskRkzZsjSpUtl7969cvHixXDqTsS3NTY2VsqUKSONGzeWTp06SdmyZaVChQpSunRpKVCgAOkjEf8TQAezW4BAO7vFOR8CCCAQYQIaTJ84cUIOHjxoguvExETz+vz583Lp0iXhD6fOGHA7nz5PnjxSuHBhKVmypAm6S5UqZV5rEE5BAIHACvC/KrCe1IYAAghEnYAGaAULFjT91lxfXT5+/LicPXvWzGhroE2wHdofC/upIjpW+fLlk7i4OClevLhJF9HxIsgO7fhw9sgVYEY7cseWniGAAALZKqD52jqLrakkGmQnJSXJ5cuXCbKzdRS8n0yD7Rw5cog+N1uDbU0V0dltfXNEQQCB4AgQaAfHlVoRQACBqBTQmWtNJdGUEf3SQJviHAENtPXpIvqls9g80s85Y0NLIlOAQDsyx5VeIYAAAggggAACCIRYgOdoh3gAOD0CCCCAAAIIIIBAZAoQaEfmuNIrBBBAAAEEEEAAgRALEGiHeAA4PQIIIIAAAggggEBkChBoR+a40isEEEAAAQQQQACBEAsQaId4ADg9AggggAACCCCAQGQKEGhH5rjSKwQQQAABBBBAAIEQCxBoh3gAOD0CCCCAAAIIIIBAZAoQaEfmuNIrBBBAAAEEEEAAgRAL/D+/ii0vEwmuTgAAAABJRU5ErkJggg==;" vertex="1" parent="1">
          <mxGeometry x="60" y="420" width="730" height="404" as="geometry" />
        </mxCell>
        <mxCell id="yIAuAzQA4wbyVpmxaV24-3" value="Student service" style="whiteSpace=wrap;html=1;aspect=fixed;" vertex="1" parent="1">
          <mxGeometry x="130" y="110" width="80" height="80" as="geometry" />
        </mxCell>
        <mxCell id="yIAuAzQA4wbyVpmxaV24-4" value="Student&lt;br&gt;InfoService" style="whiteSpace=wrap;html=1;aspect=fixed;" vertex="1" parent="1">
          <mxGeometry x="580" y="110" width="90" height="90" as="geometry" />
        </mxCell>
        <mxCell id="yIAuAzQA4wbyVpmxaV24-5" value="500 connection timeout&amp;nbsp;&lt;br&gt;" style="text;html=1;strokeColor=none;fillColor=none;align=center;verticalAlign=middle;whiteSpace=wrap;rounded=0;" vertex="1" parent="1">
          <mxGeometry x="360" y="60" width="60" height="30" as="geometry" />
        </mxCell>
        <mxCell id="yIAuAzQA4wbyVpmxaV24-6" value="" style="endArrow=classic;html=1;rounded=0;" edge="1" parent="1">
          <mxGeometry width="50" height="50" relative="1" as="geometry">
            <mxPoint x="250" y="125" as="sourcePoint" />
            <mxPoint x="540" y="125" as="targetPoint" />
          </mxGeometry>
        </mxCell>
        <mxCell id="yIAuAzQA4wbyVpmxaV24-7" value="" style="endArrow=none;html=1;rounded=0;" edge="1" parent="1">
          <mxGeometry width="50" height="50" relative="1" as="geometry">
            <mxPoint x="370" y="150" as="sourcePoint" />
            <mxPoint x="420" y="100" as="targetPoint" />
            <Array as="points">
              <mxPoint x="390" y="130" />
            </Array>
          </mxGeometry>
        </mxCell>
        <mxCell id="yIAuAzQA4wbyVpmxaV24-8" value="" style="endArrow=none;html=1;rounded=0;" edge="1" parent="1">
          <mxGeometry width="50" height="50" relative="1" as="geometry">
            <mxPoint x="370" y="100" as="sourcePoint" />
            <mxPoint x="430" y="150" as="targetPoint" />
          </mxGeometry>
        </mxCell>
        <mxCell id="yIAuAzQA4wbyVpmxaV24-9" value="Actuator" style="text;html=1;strokeColor=none;fillColor=none;align=center;verticalAlign=middle;whiteSpace=wrap;rounded=0;" vertex="1" parent="1">
          <mxGeometry x="595" y="210" width="60" height="30" as="geometry" />
        </mxCell>
        <mxCell id="yIAuAzQA4wbyVpmxaV24-19" value="" style="endArrow=classic;html=1;rounded=0;" edge="1" parent="1">
          <mxGeometry width="50" height="50" relative="1" as="geometry">
            <mxPoint x="260" y="190" as="sourcePoint" />
            <mxPoint x="540" y="190" as="targetPoint" />
          </mxGeometry>
        </mxCell>
        <mxCell id="yIAuAzQA4wbyVpmxaV24-20" value="200" style="text;html=1;align=center;verticalAlign=middle;resizable=0;points=[];autosize=1;strokeColor=none;fillColor=none;" vertex="1" parent="1">
          <mxGeometry x="360" y="158" width="40" height="30" as="geometry" />
        </mxCell>
        <mxCell id="yIAuAzQA4wbyVpmxaV24-22" value="minimumNumberCall : 5&lt;br&gt;" style="text;html=1;align=center;verticalAlign=middle;resizable=0;points=[];autosize=1;strokeColor=none;fillColor=none;" vertex="1" parent="1">
          <mxGeometry x="195" y="328" width="150" height="30" as="geometry" />
        </mxCell>
      </root>
    </mxGraphModel>
  </diagram>
</mxfile>
